<svg version="1.1" id="Layer_1" xmlns="http://www.w3.org/2000/svg" xmlns:xlink="http://www.w3.org/1999/xlink" x="0px" y="0px"
	 width="100%" viewBox="0 0 676 676" enable-background="new 0 0 676 676" xml:space="preserve">
<path fill="#494949" opacity="1.000000" stroke="none" 
	d="
M414.092072,266.923431 
	C423.653839,269.798309 433.176941,272.809998 442.784607,275.522308 
	C471.230469,283.552948 486.282990,303.244873 490.830170,331.501373 
	C497.046967,370.132935 502.769928,408.844727 508.539886,447.546692 
	C509.322021,452.793152 509.285706,458.179230 509.392487,463.505371 
	C509.656738,476.683380 505.329010,488.048309 495.481750,497.019287 
	C485.879669,505.766907 476.162018,514.387634 466.491089,523.059631 
	C465.283295,524.142639 464.051056,525.198425 462.457611,526.592834 
	C476.064972,532.871582 489.856812,536.448730 503.960419,539.022705 
	C527.695801,543.354309 551.520874,547.265869 575.119263,552.249023 
	C587.911743,554.950317 599.353333,561.161621 609.418518,569.897644 
	C632.550232,589.974792 628.027161,628.132507 607.304321,644.653503 
	C592.237976,656.664856 574.678833,662.616943 556.188049,665.920532 
	C514.333252,673.398438 472.289856,672.879822 430.248291,667.449707 
	C400.073181,663.552307 370.811646,655.924438 342.195374,645.630310 
	C339.884491,644.799011 336.649017,645.525452 334.146210,646.397644 
	C310.839020,654.519409 287.272278,661.713013 262.825958,665.447449 
	C213.753403,672.943848 164.644577,674.325073 115.629906,664.953979 
	C102.961319,662.531921 90.960472,658.037170 80.001198,651.062317 
	C57.618176,636.817200 48.454552,608.138794 59.274128,585.055359 
	C66.106155,570.479370 78.599411,562.026306 93.007370,556.197327 
	C109.811119,549.399048 127.673302,546.980774 145.398026,543.939270 
	C162.937775,540.929382 180.448715,537.676636 197.841919,533.925903 
	C204.431213,532.504944 210.656342,529.395264 218.082062,526.676453 
	C215.675034,524.763794 213.990601,523.537109 212.431320,522.167969 
	C202.926788,513.822510 193.255798,505.653137 184.020340,497.018585 
	C174.911011,488.501831 170.175522,477.594116 170.995270,465.193573 
	C172.080490,448.776947 173.801422,432.369873 176.054779,416.070068 
	C180.021454,387.376587 184.542419,358.758820 188.978790,330.132172 
	C189.663528,325.713623 190.933228,321.354095 192.273865,317.074219 
	C198.464554,297.310883 211.060593,283.580597 230.940094,277.129913 
	C242.016083,273.535828 253.252838,270.437164 265.148376,266.988342 
	C273.996918,263.909515 282.268097,261.313965 290.184143,257.896027 
	C296.842529,255.021118 301.996307,250.019485 303.267883,242.538315 
	C304.375488,236.021591 304.650299,229.354034 305.072968,222.739059 
	C305.145874,221.598099 304.257507,220.299850 303.577179,219.223373 
	C300.749756,214.749374 297.910248,210.278198 294.895142,205.930847 
	C294.090820,204.771164 292.748352,203.449249 291.480469,203.238266 
	C285.651978,202.268402 283.999023,200.225266 282.851105,194.172424 
	C281.685364,188.025726 279.694580,182.034851 278.049683,175.979904 
	C276.319031,169.609222 274.086151,163.321732 273.038849,156.841736 
	C272.535339,153.726151 273.386475,149.584702 275.250549,147.156250 
	C276.666443,145.311691 280.651764,145.439423 282.968475,144.828186 
	C282.968475,138.003845 282.792053,130.878769 283.002502,123.765129 
	C283.568207,104.643524 293.346985,90.922272 311.290222,84.249214 
	C314.178589,83.175041 315.118958,81.880760 314.826111,78.875381 
	C313.883698,69.202209 317.766510,61.420227 324.603088,54.807487 
	C335.028168,44.723778 345.039581,44.790695 355.515228,54.921230 
	C363.390656,62.537193 366.662598,71.667946 364.905273,82.620522 
	C396.485626,93.100105 398.526611,118.057419 395.957916,145.152390 
	C404.350159,144.510666 407.072357,147.037567 406.982056,155.242325 
	C406.958435,157.389481 406.737762,159.566086 406.319946,161.672119 
	C403.836456,174.190018 395.945953,185.100021 395.460785,198.291473 
	C395.403412,199.851486 392.674042,202.666794 391.320343,202.586594 
	C386.022644,202.272781 384.856354,205.763550 383.227081,209.453903 
	C382.099548,212.007797 380.738190,214.824265 378.661804,216.519836 
	C373.840576,220.456818 373.883270,225.387772 374.086182,230.843628 
	C374.596466,244.565567 379.861511,255.044556 393.298889,260.060394 
	C400.131836,262.610962 407.154938,264.652039 414.092072,266.923431 
M419.788818,504.886658 
	C421.191589,503.280151 422.640228,501.711151 423.989716,500.061096 
	C433.672333,488.222015 443.398224,476.416840 452.909698,464.441528 
	C453.906769,463.186188 454.142120,460.787689 453.807739,459.102753 
	C451.996582,449.975861 449.859375,440.914337 447.900787,431.816010 
	C443.770813,412.630676 439.681946,393.436523 435.374603,373.303650 
	C432.063477,385.241638 429.012299,396.279358 425.940033,407.311218 
	C419.318909,431.086517 415.918976,454.861023 425.306610,478.820862 
	C425.840393,480.183228 424.863800,482.612793 423.855530,484.018860 
	C420.185455,489.136932 416.202972,494.031006 411.794922,499.443207 
	C409.276245,502.545746 406.942261,505.831329 404.143463,508.656372 
	C403.095367,509.714264 400.648529,510.526550 399.379974,510.040375 
	C391.290100,506.940033 383.190002,506.721558 374.848022,508.713165 
	C351.981750,514.172424 329.096375,515.057617 306.182617,508.853638 
	C297.415771,506.479980 288.787750,506.562317 280.313629,510.484558 
	C279.201385,510.999359 276.609436,510.069214 275.695038,508.977386 
	C269.388672,501.447174 263.431885,493.625092 257.172882,486.053802 
	C254.907684,483.313629 254.516678,480.884613 255.716263,477.437256 
	C260.904602,462.526825 262.604980,447.070068 259.182404,431.669891 
	C255.111115,413.350647 249.847260,395.296204 245.074738,377.133667 
	C244.778809,376.007538 244.261505,374.939575 243.462769,372.828400 
	C243.021133,375.859375 242.843857,377.686401 242.480850,379.475800 
	C237.155487,405.726868 231.861603,431.984650 226.389786,458.205261 
	C225.707977,461.472443 226.280060,463.660889 228.517609,466.212311 
	C234.657166,473.213043 240.440765,480.530487 246.257950,487.808350 
	C254.052078,497.559601 261.604767,507.507111 269.535614,517.144470 
	C274.175964,522.783325 277.100159,523.383362 283.479156,520.309082 
	C289.824432,517.250916 296.210571,517.258301 302.953918,518.394409 
	C312.941620,520.077087 323.037292,521.130188 333.006378,522.904175 
	C335.199860,523.294434 337.055359,525.583801 339.068237,527.658997 
	C339.805237,527.474670 340.542267,527.290344 341.791504,526.596130 
	C342.666351,523.560364 344.799164,522.794067 347.803406,522.496216 
	C356.220947,521.661621 364.665741,520.783752 372.972931,519.240234 
	C381.752136,517.609009 390.204559,516.071533 398.708008,520.721497 
	C400.700592,521.811035 405.034363,521.532227 406.530731,520.075195 
	C411.189606,515.538696 415.003693,510.134613 419.788818,504.886658 
M292.437866,563.269958 
	C293.514557,564.472229 294.504822,565.767456 295.682129,566.861450 
	C302.781799,573.458679 310.032166,579.886963 311.255707,590.447571 
	C311.389557,591.603149 313.263916,592.878967 314.607208,593.523682 
	C331.604279,601.682007 348.667816,601.450073 365.596283,593.385132 
	C367.187225,592.627075 368.843018,590.573120 369.178345,588.867249 
	C370.417969,582.561096 373.313019,577.378540 377.949738,573.001709 
	C380.737427,570.370300 383.301666,567.502197 386.673676,564.007324 
	C354.620667,570.943726 323.819122,571.640686 292.437866,563.269958 
z"/>
<path fill="#D3B364" opacity="1.000000" stroke="none" 
	d="
M414.266846,266.646606 
	C407.154938,264.652039 400.131836,262.610962 393.298889,260.060394 
	C379.861511,255.044556 374.596466,244.565567 374.086182,230.843628 
	C373.883270,225.387772 373.840576,220.456818 378.661804,216.519836 
	C380.738190,214.824265 382.099548,212.007797 383.227081,209.453903 
	C384.856354,205.763550 386.022644,202.272781 391.320343,202.586594 
	C392.674042,202.666794 395.403412,199.851486 395.460785,198.291473 
	C395.945953,185.100021 403.836456,174.190018 406.319946,161.672119 
	C406.737762,159.566086 406.958435,157.389481 406.982056,155.242325 
	C407.072357,147.037567 404.350159,144.510666 395.957916,145.152390 
	C398.526611,118.057419 396.485626,93.100105 364.905273,82.620522 
	C366.662598,71.667946 363.390656,62.537193 355.515228,54.921230 
	C345.039581,44.790695 335.028168,44.723778 324.603088,54.807487 
	C317.766510,61.420227 313.883698,69.202209 314.826111,78.875381 
	C315.118958,81.880760 314.178589,83.175041 311.290222,84.249214 
	C293.346985,90.922272 283.568207,104.643524 283.002502,123.765129 
	C282.792053,130.878769 282.968475,138.003845 282.968475,144.828186 
	C280.651764,145.439423 276.666443,145.311691 275.250549,147.156250 
	C273.386475,149.584702 272.535339,153.726151 273.038849,156.841736 
	C274.086151,163.321732 276.319031,169.609222 278.049683,175.979904 
	C279.694580,182.034851 281.685364,188.025726 282.851105,194.172424 
	C283.999023,200.225266 285.651978,202.268402 291.480469,203.238266 
	C292.748352,203.449249 294.090820,204.771164 294.895142,205.930847 
	C297.910248,210.278198 300.749756,214.749374 303.577179,219.223373 
	C304.257507,220.299850 305.145874,221.598099 305.072968,222.739059 
	C304.650299,229.354034 304.375488,236.021591 303.267883,242.538315 
	C301.996307,250.019485 296.842529,255.021118 290.184143,257.896027 
	C282.268097,261.313965 273.996918,263.909515 265.526062,266.864746 
	C260.842194,263.542084 256.426483,260.320831 252.195267,256.873169 
	C223.034744,233.112595 206.237473,202.423157 201.896759,165.163727 
	C193.411606,92.329842 242.238953,26.000042 314.118378,12.248159 
	C389.758209,-2.223159 464.309601,48.378403 476.694611,124.323463 
	C486.489838,184.387939 464.858917,232.020645 414.266846,266.646606 
z"/>

</svg>
